<?xml version="1.0" encoding="UTF-8" standalone="no"?>
<!DOCTYPE svg PUBLIC "-//W3C//DTD SVG 1.1//EN" "http://www.w3.org/Graphics/SVG/1.1/DTD/svg11.dtd">
<svg width="100%" height="100%" viewBox="0 0 1269 173" version="1.1" xmlns="http://www.w3.org/2000/svg" xmlns:xlink="http://www.w3.org/1999/xlink" xml:space="preserve" style="fill-rule:evenodd;clip-rule:evenodd;stroke-linejoin:round;stroke-miterlimit:1.41421;">
    <g transform="matrix(1,0,0,1,-99.8114,-501.263)">
        <g id="Spinousaurus" transform="matrix(0.430162,0,0,0.430162,154.018,-19.2848)">
            <g id="Back7" transform="matrix(1,0,0,1,-151.196,987.698)">
                <path id="Tail_Back5" d="M808.215,556.277C875.032,550.99 933.895,532.688 972.972,507.992C969.089,508.51 965.173,508.983 961.224,509.412C963.717,509.339 966.21,509.247 968.703,509.136C946.772,520.116 922.396,527.632 898.55,532.728C867.913,539.272 836.23,542.202 804.922,542.202C784.193,542.202 763.04,540.114 742.998,534.66C728.121,530.611 713.242,524.518 700.585,515.608C691.32,509.087 682.735,500.638 677.564,490.447C675.551,486.481 674.085,482.28 673.358,477.974C656.239,513.313 702.824,564.615 808.215,556.277" style="fill:rgb(71,115,27);"/>
                <path id="Body_Back_II1" d="M468.456,511.558C548.924,513.027 613.289,547.228 613.289,589.211L681.38,589.211C681.668,588.915 681.953,588.617 682.237,588.32L643.156,588.32C643.12,586.616 642.979,584.913 642.736,583.225C639.418,560.192 618.025,543.475 598.684,533.47C583.694,525.716 567.171,520.339 550.714,516.738C531.512,512.537 511.694,510.611 492.048,510.611C484.195,510.611 476.314,510.919 468.456,511.558" style="fill:rgb(71,115,27);"/>
                <path id="Body_Back_I1" d="M117.37,374.58C117.114,374.411 116.858,374.241 116.605,374.077C101.263,380.459 100.1,406.682 107.835,412.753C129.099,429.442 187.722,490.847 207.043,515.607C210.301,542.476 223.684,567.526 244.747,589.212L312.837,589.212C312.837,588.914 312.852,588.617 312.859,588.321L274.11,588.321C254.68,568.227 240.319,543.59 236.913,515.5L236.883,515.255L236.731,515.06C205.023,474.426 160.865,450.922 125.336,416.119C117.479,408.422 108.667,396.821 111.284,385.043C112.197,380.944 114.413,377.403 117.37,374.58" style="fill:rgb(71,115,27);"/>
            </g>
            <g id="OverallHead7" transform="matrix(1,0,0,1,-151.196,987.698)">
                <path id="Head7" d="M102.868,447.549C139.069,440.448 164.84,416.464 160.43,393.976C156.019,371.487 123.098,359.012 86.898,366.113C24.859,378.278 -19.87,471.616 102.868,447.549" style="fill:url(#_Linear1);"/>
                <g id="OverallEye7">
                    <path id="Eye7" d="M82.424,389.056C91.814,389.056 99.426,396.667 99.426,406.057C99.426,415.448 91.814,423.059 82.424,423.059C73.035,423.059 65.423,415.448 65.423,406.057C65.423,396.667 73.035,389.056 82.424,389.056" style="fill:white;"/>
                    <path id="Iris7" d="M82.424,396.504C87.7,396.504 91.977,400.781 91.977,406.056C91.977,411.332 87.701,415.609 82.424,415.609C77.148,415.609 72.872,411.333 72.872,406.056C72.872,400.781 77.148,396.504 82.424,396.504" style="fill:black;"/>
                    <g id="Lids7">
                        <path id="Bottom_Eye_Lid7" d="M103.75,414.682L103.75,408.35L61.099,408.35L61.099,414.682C65.295,422.124 73.272,427.152 82.425,427.152C91.578,427.151 99.555,422.124 103.75,414.682" style="fill:url(#_Linear2);"/>
                        <path id="Top_Eye_Lid7" d="M103.75,381.786L103.75,388.118L61.099,388.118L61.099,381.786C65.295,374.343 73.272,369.316 82.425,369.316C91.578,369.316 99.555,374.343 103.75,381.786" style="fill:url(#_Linear3);"/>
                    </g>
                </g>
            </g>
            <g id="Front7" transform="matrix(1,0,0,1,-151.196,987.698)">
                <g id="OverallSpine">
                    <path id="Fin" d="M492.05,234.522C607.378,234.522 703.316,322.862 723.467,439.456C707.494,416.239 684.146,397.597 660.066,383.946C609.987,355.554 549.224,343.253 492.049,343.253C444.834,343.253 396.245,351.526 352.621,369.928C317.975,384.543 283.422,407.06 261.521,438.214L260.627,439.485C280.768,322.877 376.713,234.522 492.05,234.522" style="fill:url(#_Radial4);"/>
                    <path id="Spines" d="M421.375,232.389L421.377,232.388C428.735,231.096 436.054,234.93 437.645,240.907L464.122,340.444C455.029,341.074 445.932,342.017 436.873,343.285L410.89,245.606C409.3,239.627 414.019,233.681 421.375,232.389M359.32,261.175C366.12,258.552 374.323,260.924 377.553,266.449L423.688,345.369C414.643,346.964 405.658,348.893 396.777,351.169L352.83,275.99C349.601,270.465 352.521,263.799 359.32,261.175ZM312.442,305.923C318.381,302.165 327.023,303.038 331.649,307.863L378.251,356.476C369.537,359.246 360.959,362.372 352.558,365.866L310.056,321.529C305.429,316.704 306.503,309.681 312.442,305.923ZM285.128,360.507C289.193,355.359 297.701,353.849 304.036,357.152L335.561,373.584C327.256,377.69 319.069,382.256 311.167,387.292L289.256,375.871C282.922,372.567 281.063,365.655 285.128,360.507ZM562.726,232.389C555.367,231.097 548.047,234.931 546.457,240.908L519.977,340.451C529.047,341.082 538.148,342.026 547.225,343.297L573.211,245.606C574.8,239.628 570.082,233.681 562.726,232.389ZM624.781,261.175C617.98,258.551 609.776,260.924 606.546,266.448L560.405,345.379C569.445,346.97 578.434,348.896 587.324,351.168L631.272,275.99C634.502,270.466 631.581,263.799 624.781,261.175ZM671.658,305.923C665.72,302.165 657.077,303.038 652.451,307.863L605.86,356.466C614.582,359.232 623.165,362.357 631.558,365.852L674.045,321.529C678.673,316.704 677.598,309.681 671.658,305.923ZM698.973,360.507C694.908,355.359 686.401,353.849 680.065,357.152L648.55,373.578C653.083,375.821 657.547,378.181 661.928,380.664C665.623,382.76 669.299,384.969 672.933,387.291L694.844,375.87C701.179,372.567 703.037,365.655 698.973,360.507ZM492.049,222.424L492.051,222.424C499.577,222.424 505.735,227.428 505.735,233.543L505.735,339.712C501.157,339.556 496.591,339.479 492.049,339.479C487.498,339.479 482.935,339.556 478.364,339.71L478.364,233.543C478.364,227.428 484.523,222.424 492.049,222.424Z" style="fill:rgb(71,115,27);"/>
                </g>
                <path id="Tail5" d="M804.92,543.133C871.946,543.133 932.069,529.529 972.972,507.992C964.388,508.453 955.656,508.69 946.802,508.69C810.778,508.69 771.891,465.934 721.972,429.556C634.53,441.946 661.289,543.133 804.92,543.133" style="fill:url(#_Linear5);"/>
                <path id="Body6" d="M257.705,435.532C193.91,429.014 146.307,360.623 126.303,368.033C112.005,373.329 98.766,391.334 124.715,416.753C146.452,438.047 210.379,482.732 236.03,515.605C239.288,542.474 252.672,567.524 273.734,589.21L341.825,589.21C341.825,546.293 409.083,511.502 492.05,511.502C575.017,511.502 642.276,546.293 642.276,589.21L710.367,589.21C734.753,564.102 748.848,534.482 748.848,502.753C748.848,412.087 633.875,338.588 492.05,338.588C387.692,338.589 297.879,378.386 257.705,435.532" style="fill:url(#_Linear6);"/>
            </g>
        </g>
        <g transform="matrix(0.97661,0,0,1.19961,-616.53,-459.196)">
            <text x="1183.81px" y="916.421px" style="font-family:'Bauhaus93', 'Bauhaus 93', fantasy;font-size:125px;fill:rgb(35,31,32);">= a word game</text>
        </g>
    </g>
    <defs>
        <linearGradient id="_Linear1" x1="0" y1="0" x2="1" y2="0" gradientUnits="userSpaceOnUse" gradientTransform="matrix(23.0579,-129.517,129.517,23.0579,770.577,563.102)"><stop offset="0%" style="stop-color:rgb(53,154,48);stop-opacity:1"/><stop offset="21%" style="stop-color:rgb(56,157,47);stop-opacity:1"/><stop offset="100%" style="stop-color:rgb(116,209,23);stop-opacity:1"/></linearGradient>
        <linearGradient id="_Linear2" x1="0" y1="0" x2="1" y2="0" gradientUnits="userSpaceOnUse" gradientTransform="matrix(23.0579,-129.517,129.517,23.0579,770.577,563.102)"><stop offset="0%" style="stop-color:rgb(53,154,48);stop-opacity:1"/><stop offset="21%" style="stop-color:rgb(56,157,47);stop-opacity:1"/><stop offset="100%" style="stop-color:rgb(116,209,23);stop-opacity:1"/></linearGradient>
        <linearGradient id="_Linear3" x1="0" y1="0" x2="1" y2="0" gradientUnits="userSpaceOnUse" gradientTransform="matrix(23.0579,-129.517,129.517,23.0579,770.577,563.102)"><stop offset="0%" style="stop-color:rgb(53,154,48);stop-opacity:1"/><stop offset="21%" style="stop-color:rgb(56,157,47);stop-opacity:1"/><stop offset="100%" style="stop-color:rgb(116,209,23);stop-opacity:1"/></linearGradient>
        <radialGradient id="_Radial4" cx="0" cy="0" r="1" gradientUnits="userSpaceOnUse" gradientTransform="matrix(178.966,0,0,178.966,492.047,337.004)"><stop offset="0%" style="stop-color:rgb(45,150,48);stop-opacity:1"/><stop offset="100%" style="stop-color:rgb(167,214,50);stop-opacity:1"/></radialGradient>
        <linearGradient id="_Linear5" x1="0" y1="0" x2="1" y2="0" gradientUnits="userSpaceOnUse" gradientTransform="matrix(23.0579,-129.517,129.517,23.0579,770.577,563.102)"><stop offset="0%" style="stop-color:rgb(53,154,48);stop-opacity:1"/><stop offset="21%" style="stop-color:rgb(56,157,47);stop-opacity:1"/><stop offset="100%" style="stop-color:rgb(116,209,23);stop-opacity:1"/></linearGradient>
        <linearGradient id="_Linear6" x1="0" y1="0" x2="1" y2="0" gradientUnits="userSpaceOnUse" gradientTransform="matrix(23.0579,-129.517,129.517,23.0579,770.577,563.102)"><stop offset="0%" style="stop-color:rgb(53,154,48);stop-opacity:1"/><stop offset="21%" style="stop-color:rgb(56,157,47);stop-opacity:1"/><stop offset="100%" style="stop-color:rgb(116,209,23);stop-opacity:1"/></linearGradient>
    </defs>
</svg>
