<?xml version="1.0" encoding="UTF-8" standalone="no"?>
<!DOCTYPE svg PUBLIC "-//W3C//DTD SVG 1.1//EN" "http://www.w3.org/Graphics/SVG/1.1/DTD/svg11.dtd">
<svg width="100%" height="100%" viewBox="0 0 1294 166" version="1.1" xmlns="http://www.w3.org/2000/svg" xmlns:xlink="http://www.w3.org/1999/xlink" xml:space="preserve" style="fill-rule:evenodd;clip-rule:evenodd;stroke-linejoin:round;stroke-miterlimit:1.41421;">
    <g transform="matrix(1,0,0,1,-99.0155,-983.364)">
        <g id="OverallSpine" transform="matrix(0.430162,0,0,0.430162,116.451,887.686)">
            <path id="Fin" d="M492.05,234.522C607.378,234.522 703.316,322.862 723.467,439.456C707.494,416.239 684.146,397.597 660.066,383.946C609.987,355.554 549.224,343.253 492.049,343.253C444.834,343.253 396.245,351.526 352.621,369.928C317.975,384.543 283.422,407.06 261.521,438.214L260.627,439.485C280.768,322.877 376.713,234.522 492.05,234.522" style="fill:url(#_Radial1);"/>
            <path id="Spines" d="M421.375,232.389L421.377,232.388C428.735,231.096 436.054,234.93 437.645,240.907L464.122,340.444C455.029,341.074 445.932,342.017 436.873,343.285L410.89,245.606C409.3,239.627 414.019,233.681 421.375,232.389M359.32,261.175C366.12,258.552 374.323,260.924 377.553,266.449L423.688,345.369C414.643,346.964 405.658,348.893 396.777,351.169L352.83,275.99C349.601,270.465 352.521,263.799 359.32,261.175ZM312.442,305.923C318.381,302.165 327.023,303.038 331.649,307.863L378.251,356.476C369.537,359.246 360.959,362.372 352.558,365.866L310.056,321.529C305.429,316.704 306.503,309.681 312.442,305.923ZM285.128,360.507C289.193,355.359 297.701,353.849 304.036,357.152L335.561,373.584C327.256,377.69 319.069,382.256 311.167,387.292L289.256,375.871C282.922,372.567 281.063,365.655 285.128,360.507ZM562.726,232.389C555.367,231.097 548.047,234.931 546.457,240.908L519.977,340.451C529.047,341.082 538.148,342.026 547.225,343.297L573.211,245.606C574.8,239.628 570.082,233.681 562.726,232.389ZM624.781,261.175C617.98,258.551 609.776,260.924 606.546,266.448L560.405,345.379C569.445,346.97 578.434,348.896 587.324,351.168L631.272,275.99C634.502,270.466 631.581,263.799 624.781,261.175ZM671.658,305.923C665.72,302.165 657.077,303.038 652.451,307.863L605.86,356.466C614.582,359.232 623.165,362.357 631.558,365.852L674.045,321.529C678.673,316.704 677.598,309.681 671.658,305.923ZM698.973,360.507C694.908,355.359 686.401,353.849 680.065,357.152L648.55,373.578C653.083,375.821 657.547,378.181 661.928,380.664C665.623,382.76 669.299,384.969 672.933,387.291L694.844,375.87C701.179,372.567 703.037,365.655 698.973,360.507ZM492.049,222.424L492.051,222.424C499.577,222.424 505.735,227.428 505.735,233.543L505.735,339.712C501.157,339.556 496.591,339.479 492.049,339.479C487.498,339.479 482.935,339.556 478.364,339.71L478.364,233.543C478.364,227.428 484.523,222.424 492.049,222.424Z" style="fill:rgb(71,115,27);"/>
        </g>
        <g transform="matrix(0.97661,0,0,1.19961,-607.783,39.4925)">
            <text x="1183.81px" y="916.421px" style="font-family:'Bauhaus93', 'Bauhaus 93', fantasy;font-size:125px;fill:rgb(35,31,32);">= the love child</text>
        </g>
        <g transform="matrix(0.44489,0,0,0.44489,106.745,860.636)">
            <g id="Triceratops">
                <g id="Back6">
                    <path id="Tail_Back4" d="M886.99,631.691C892.114,632.306 897.292,632.734 902.515,632.966C835.877,661.433 669.097,652.454 661.361,551.355C660.186,535.998 664.266,522.935 672.035,513.572C670.661,518.775 670.026,524.23 670.08,529.752C670.237,545.85 674.383,560.979 682.824,574.711C704.494,609.955 749.258,628.221 788.171,635.906C808.321,639.886 829.299,641.619 849.828,640.869C865.698,640.289 882.61,638.193 897.958,633.422C894.28,632.938 890.624,632.357 886.99,631.691" style="fill:rgb(42,92,128);"/>
                    <path id="Back_Body_II1" d="M486.164,566.74C524.602,573.228 553.873,606.506 553.873,646.59C553.873,646.733 553.868,646.875 553.867,647.018L676.503,647.018C676.659,646.684 676.814,646.352 676.968,646.018L587.396,646.018C587.086,600.829 550.132,564.59 504.968,564.59C498.503,564.59 492.208,565.336 486.164,566.74" style="fill:rgb(42,92,128);"/>
                    <path id="Back_Body_I1" d="M345.578,388.023C314.99,426.486 247.164,498.521 247.164,551.482C247.164,585.638 254.78,618.011 268.383,647.017L391.018,647.017C391.017,646.874 391.013,646.732 391.013,646.589C391.013,646.398 391.019,646.208 391.02,646.017L301.544,646.017C287.738,616.359 280.688,584.199 280.688,551.482C280.688,498.47 299.086,449.759 329.839,411.375L345.578,388.023Z" style="fill:rgb(42,92,128);"/>
                </g>
            </g>
        </g>
        <g transform="matrix(1.13608,0,0,1.13608,-43.0706,-216.917)">
            <g id="Body6" transform="matrix(0.466587,0,0,0.466587,123.523,926.941)">
                <path d="M257.705,435.532C193.91,429.014 146.307,360.623 126.303,368.033C112.005,373.329 98.766,391.334 124.715,416.753C146.452,438.047 210.379,482.732 236.03,515.605C239.288,542.474 252.672,567.524 273.734,589.21L341.825,589.21C341.825,546.293 409.083,511.502 492.05,511.502C575.017,511.502 603.207,481.363 603.207,524.28L710.367,589.21C734.753,564.102 590.687,515.834 590.687,484.105C590.687,393.439 604.306,374.347 462.481,374.347C358.123,374.348 297.879,378.386 257.705,435.532" style="fill:url(#_Linear2);"/>
            </g>
            <g id="BackHorn" transform="matrix(0.391602,0,0,0.391602,39.9813,991.539)">
                <path d="M296.968,312.851L237.652,220.078L317.631,270.758C317.631,270.758 324.839,307.047 296.968,312.851" style="fill:url(#_Linear3);"/>
            </g>
            <g id="OverallHead7" transform="matrix(0.466587,0,0,0.466587,113.318,920.516)">
                <path id="Head7" d="M102.868,447.549C139.069,440.448 164.84,416.464 160.43,393.976C156.019,371.487 123.098,359.012 86.898,366.113C24.859,378.278 -19.87,471.616 102.868,447.549" style="fill:url(#_Linear4);"/>
                <g id="OverallEye7">
                    <path id="Eye7" d="M82.424,389.056C91.814,389.056 99.426,396.667 99.426,406.057C99.426,415.448 91.814,423.059 82.424,423.059C73.035,423.059 65.423,415.448 65.423,406.057C65.423,396.667 73.035,389.056 82.424,389.056" style="fill:white;"/>
                    <path id="Iris7" d="M82.424,396.504C87.7,396.504 91.977,400.781 91.977,406.056C91.977,411.332 87.701,415.609 82.424,415.609C77.148,415.609 72.872,411.333 72.872,406.056C72.872,400.781 77.148,396.504 82.424,396.504" style="fill:black;"/>
                    <g id="Lids7">
                        <path id="Bottom_Eye_Lid7" d="M103.75,414.682L103.75,408.35L61.099,408.35L61.099,414.682C65.295,422.124 73.272,427.152 82.425,427.152C91.578,427.151 99.555,422.124 103.75,414.682" style="fill:url(#_Linear5);"/>
                        <path id="Top_Eye_Lid7" d="M103.75,381.786L103.75,388.118L61.099,388.118L61.099,381.786C65.295,374.343 73.272,369.316 82.425,369.316C91.578,369.316 99.555,374.343 103.75,381.786" style="fill:url(#_Linear6);"/>
                    </g>
                </g>
            </g>
            <g id="FrontHorn" transform="matrix(0.391602,0,0,0.391602,39.9813,991.539)">
                <path d="M315.373,292.306L256.057,199.533L336.036,250.213C336.036,250.212 343.244,286.502 315.373,292.306" style="fill:url(#_Linear7);"/>
            </g>
        </g>
        <g id="Front6" transform="matrix(0.44489,0,0,0.44489,105.823,860.636)">
            <path id="Tail4" d="M718.327,478.787C741.717,561.131 814.167,623.156 902.515,632.967C830.043,658.41 670.079,632.262 669.079,529.762C668.708,491.705 699.66,473.701 717.78,478.631C735.902,483.561 718.15,478.738 718.327,478.787" style="fill:url(#_Linear8);"/>
            <path id="Body5" d="M504.968,326.204C380.55,326.204 279.689,427.065 279.689,551.483C279.689,585.639 287.305,618.012 300.908,647.018L423.543,647.018C423.543,646.875 423.538,646.733 423.538,646.59C423.538,601.854 459.996,565.59 504.968,565.59C549.94,565.59 586.398,601.854 586.398,646.59C586.398,646.733 586.394,646.875 586.393,647.018L709.028,647.018C722.632,618.012 730.248,585.639 730.248,551.483C730.247,427.064 629.386,326.204 504.968,326.204" style="fill:url(#_Linear9);"/>
        </g>
    </g>
    <defs>
        <radialGradient id="_Radial1" cx="0" cy="0" r="1" gradientUnits="userSpaceOnUse" gradientTransform="matrix(178.966,0,0,178.966,492.047,337.004)"><stop offset="0%" style="stop-color:rgb(45,150,48);stop-opacity:1"/><stop offset="100%" style="stop-color:rgb(167,214,50);stop-opacity:1"/></radialGradient>
        <linearGradient id="_Linear2" x1="0" y1="0" x2="1" y2="0" gradientUnits="userSpaceOnUse" gradientTransform="matrix(23.0579,-129.517,129.517,23.0579,770.577,563.102)"><stop offset="0%" style="stop-color:rgb(53,154,48);stop-opacity:1"/><stop offset="21%" style="stop-color:rgb(56,157,47);stop-opacity:1"/><stop offset="100%" style="stop-color:rgb(116,209,23);stop-opacity:1"/></linearGradient>
        <linearGradient id="_Linear3" x1="0" y1="0" x2="1" y2="0" gradientUnits="userSpaceOnUse" gradientTransform="matrix(-92.1801,-53.2202,53.2202,-92.1801,317.161,295.246)"><stop offset="0%" style="stop-color:rgb(18,92,145);stop-opacity:1"/><stop offset="100%" style="stop-color:rgb(71,159,222);stop-opacity:1"/></linearGradient>
        <linearGradient id="_Linear4" x1="0" y1="0" x2="1" y2="0" gradientUnits="userSpaceOnUse" gradientTransform="matrix(23.0579,-129.517,129.517,23.0579,770.577,563.102)"><stop offset="0%" style="stop-color:rgb(53,154,48);stop-opacity:1"/><stop offset="21%" style="stop-color:rgb(56,157,47);stop-opacity:1"/><stop offset="100%" style="stop-color:rgb(116,209,23);stop-opacity:1"/></linearGradient>
        <linearGradient id="_Linear5" x1="0" y1="0" x2="1" y2="0" gradientUnits="userSpaceOnUse" gradientTransform="matrix(23.0579,-129.517,129.517,23.0579,770.577,563.102)"><stop offset="0%" style="stop-color:rgb(53,154,48);stop-opacity:1"/><stop offset="21%" style="stop-color:rgb(56,157,47);stop-opacity:1"/><stop offset="100%" style="stop-color:rgb(116,209,23);stop-opacity:1"/></linearGradient>
        <linearGradient id="_Linear6" x1="0" y1="0" x2="1" y2="0" gradientUnits="userSpaceOnUse" gradientTransform="matrix(23.0579,-129.517,129.517,23.0579,770.577,563.102)"><stop offset="0%" style="stop-color:rgb(53,154,48);stop-opacity:1"/><stop offset="21%" style="stop-color:rgb(56,157,47);stop-opacity:1"/><stop offset="100%" style="stop-color:rgb(116,209,23);stop-opacity:1"/></linearGradient>
        <linearGradient id="_Linear7" x1="0" y1="0" x2="1" y2="0" gradientUnits="userSpaceOnUse" gradientTransform="matrix(-92.1801,-53.2202,53.2202,-92.1801,335.566,274.701)"><stop offset="0%" style="stop-color:rgb(18,92,145);stop-opacity:1"/><stop offset="100%" style="stop-color:rgb(71,159,222);stop-opacity:1"/></linearGradient>
        <linearGradient id="_Linear8" x1="0" y1="0" x2="1" y2="0" gradientUnits="userSpaceOnUse" gradientTransform="matrix(743.658,197.383,-197.383,743.658,158.858,362.55)"><stop offset="0%" style="stop-color:rgb(18,92,145);stop-opacity:1"/><stop offset="100%" style="stop-color:rgb(71,159,222);stop-opacity:1"/></linearGradient>
        <linearGradient id="_Linear9" x1="0" y1="0" x2="1" y2="0" gradientUnits="userSpaceOnUse" gradientTransform="matrix(743.658,197.383,-197.383,743.658,158.858,362.55)"><stop offset="0%" style="stop-color:rgb(18,92,145);stop-opacity:1"/><stop offset="100%" style="stop-color:rgb(71,159,222);stop-opacity:1"/></linearGradient>
    </defs>
</svg>
