<?xml version="1.0" standalone="no"?>
<!DOCTYPE svg PUBLIC "-//W3C//DTD SVG 20010904//EN"
 "http://www.w3.org/TR/2001/REC-SVG-20010904/DTD/svg10.dtd">
<svg version="1.0" xmlns="http://www.w3.org/2000/svg"
 width="2796.000000pt" height="2796.000000pt" viewBox="0 0 2796.000000 2796.000000"
 preserveAspectRatio="xMidYMid meet">
<metadata>
Created by potrace 1.11, written by Peter Selinger 2001-2013
</metadata>
<g transform="translate(0.000000,2796.000000) scale(0.100000,-0.100000)"
fill="#000000" stroke="none">
<path d="M23039 26566 c-2 -2 -33 -7 -69 -10 -36 -4 -72 -8 -80 -11 -8 -2 -35
-6 -60 -9 -25 -3 -54 -8 -65 -10 -408 -85 -729 -245 -984 -490 -233 -225 -374
-493 -435 -831 -31 -166 -21 -532 18 -721 2 -12 7 -38 10 -59 4 -20 8 -41 11
-45 2 -3 7 -21 10 -39 12 -66 69 -229 115 -327 80 -171 163 -289 296 -419 86
-85 90 -88 201 -163 113 -76 267 -150 408 -197 105 -34 304 -79 398 -91 25 -2
55 -7 66 -9 119 -23 586 -23 774 0 15 2 55 6 90 10 76 8 72 7 294 44 100 17
209 37 243 45 46 11 62 12 65 3 53 -170 74 -230 112 -321 25 -60 63 -140 85
-179 21 -38 38 -72 38 -74 0 -3 29 -51 63 -106 127 -203 285 -667 383 -1122 8
-38 17 -83 19 -100 3 -16 7 -41 10 -55 2 -13 7 -42 11 -64 3 -22 7 -43 9 -46
2 -3 6 -30 9 -60 4 -30 9 -66 11 -80 3 -14 7 -45 9 -70 3 -25 8 -72 12 -105
22 -193 29 -349 29 -675 0 -271 -6 -459 -20 -625 -2 -22 -6 -76 -10 -120 -4
-44 -8 -82 -10 -85 -1 -3 -6 -43 -10 -90 -3 -47 -8 -92 -10 -100 -3 -8 -7 -35
-10 -60 -3 -25 -10 -72 -15 -105 -5 -33 -12 -78 -15 -100 -4 -22 -8 -53 -11
-70 -8 -51 -44 -246 -60 -325 -9 -41 -18 -86 -20 -100 -22 -116 -131 -572
-154 -645 -5 -16 -30 -104 -55 -195 -25 -91 -59 -205 -74 -255 -16 -49 -39
-124 -51 -165 -12 -41 -24 -82 -27 -90 -3 -8 -36 -107 -75 -220 -38 -113 -73
-214 -78 -225 -5 -11 -32 -85 -61 -165 -48 -135 -148 -399 -169 -445 -5 -11
-41 -101 -81 -200 -39 -99 -131 -322 -205 -495 -135 -314 -135 -315 -204 -390
-39 -41 -70 -71 -70 -66 0 5 8 14 17 21 10 7 -27 3 -88 -11 -126 -29 -142 -32
-199 -40 -25 -3 -54 -8 -65 -10 -131 -27 -524 -45 -635 -29 -93 12 -121 18
-200 36 -231 55 -493 192 -740 388 -127 101 -152 123 -315 286 -169 170 -248
259 -447 506 -122 152 -394 530 -524 729 -27 41 -53 79 -57 85 -7 9 -102 155
-212 325 -60 94 -236 378 -353 570 -55 91 -116 190 -135 220 -19 30 -161 262
-316 515 -155 253 -286 467 -291 475 -5 8 -52 83 -103 165 -201 322 -487 756
-656 995 -44 63 -86 123 -93 134 -27 39 -337 455 -356 477 -12 13 -78 95 -149
181 -306 375 -601 685 -868 913 -38 33 -77 67 -87 75 -15 14 -77 63 -221 176
-87 68 -316 219 -442 292 -74 42 -264 138 -327 166 -21 9 -54 23 -73 31 -137
61 -434 154 -565 179 -226 41 -240 43 -370 53 -169 14 -628 6 -683 -12 -6 -2
-41 -6 -76 -10 -36 -3 -67 -7 -70 -9 -3 -2 -30 -7 -59 -10 -30 -3 -75 -11
-100 -17 -26 -6 -60 -13 -77 -16 -102 -17 -391 -101 -550 -161 -200 -75 -472
-205 -629 -300 -37 -23 -70 -42 -71 -42 -10 0 -264 -174 -364 -248 -310 -231
-664 -564 -947 -888 -160 -184 -508 -628 -606 -774 -9 -14 -47 -68 -84 -120
-296 -424 -592 -904 -1016 -1650 -11 -19 -46 -80 -78 -135 -32 -55 -150 -264
-263 -465 -113 -201 -251 -446 -307 -545 -57 -99 -108 -190 -114 -202 -6 -13
-14 -23 -18 -23 -5 0 -8 -4 -8 -9 0 -9 -160 -281 -275 -466 -116 -187 -317
-490 -373 -560 -4 -5 -29 -41 -55 -78 -178 -257 -483 -594 -695 -770 -244
-202 -527 -349 -755 -393 -12 -2 -35 -7 -52 -10 -16 -4 -43 -8 -60 -10 -16 -1
-48 -5 -70 -8 -22 -3 -65 -8 -95 -12 -30 -3 -66 -7 -80 -9 -14 -2 -85 -7 -158
-10 -74 -3 -175 -14 -225 -24 -50 -11 -98 -18 -106 -16 -150 32 -284 63 -405
92 l-149 36 -116 90 c-99 76 -157 123 -215 172 -6 6 -41 35 -76 65 -36 30 -70
59 -76 65 -281 256 -444 421 -639 645 -579 665 -997 1405 -1241 2199 -73 237
-143 536 -171 726 -2 17 -8 53 -13 80 -5 28 -12 79 -15 115 -4 36 -8 76 -10
90 -4 27 -11 107 -21 245 -7 99 -7 543 1 615 2 25 7 85 10 135 4 49 8 92 10
95 2 3 7 37 10 75 4 38 9 78 11 90 2 11 6 31 9 45 2 14 7 45 10 70 3 25 8 52
10 60 2 8 6 33 10 55 23 160 155 617 242 840 82 210 234 535 251 535 4 0 33
-7 65 -15 31 -8 71 -17 89 -20 18 -3 62 -12 98 -20 36 -8 76 -17 90 -19 14 -2
46 -9 72 -15 43 -10 241 -43 328 -55 119 -17 195 -26 265 -31 44 -4 86 -8 93
-11 21 -6 309 -18 447 -18 119 1 303 10 358 19 12 2 42 6 67 9 64 9 95 14 175
31 39 8 79 17 90 19 49 10 182 59 253 92 241 114 396 279 473 503 50 146 60
342 24 476 -66 246 -267 489 -562 679 -204 131 -549 269 -803 321 -59 12 -90
18 -110 21 -14 3 -36 7 -50 9 -54 11 -67 13 -130 20 -36 4 -76 10 -90 12 -47
9 -535 11 -595 3 -33 -5 -89 -11 -123 -14 -264 -27 -630 -127 -902 -248 -560
-248 -1061 -679 -1406 -1208 -27 -41 -52 -76 -56 -78 -5 -2 -8 -7 -8 -12 0 -4
-28 -55 -62 -112 -56 -95 -172 -324 -225 -443 -82 -187 -211 -555 -253 -723
-5 -23 -15 -61 -21 -84 -27 -109 -68 -290 -75 -333 -3 -22 -7 -42 -9 -46 -2
-3 -7 -21 -10 -40 -3 -19 -10 -60 -16 -91 -5 -32 -12 -74 -14 -95 -2 -21 -6
-47 -9 -58 -6 -30 -15 -95 -21 -145 -3 -25 -7 -63 -10 -85 -9 -75 -16 -140
-20 -175 -3 -19 -7 -73 -11 -120 -3 -47 -7 -101 -9 -120 -30 -308 -25 -1150 9
-1557 3 -40 8 -106 11 -145 3 -40 8 -94 10 -120 18 -178 25 -249 30 -278 2
-14 7 -58 10 -99 4 -41 9 -84 11 -95 4 -22 13 -88 19 -141 7 -64 46 -331 50
-345 2 -8 6 -37 10 -65 3 -27 8 -57 10 -65 3 -8 7 -32 9 -52 5 -35 9 -59 20
-128 17 -99 98 -528 102 -542 3 -10 7 -30 10 -45 2 -16 7 -39 10 -53 3 -14 8
-34 10 -45 41 -218 180 -799 247 -1035 68 -236 201 -644 262 -800 8 -19 30
-78 49 -130 88 -237 223 -570 297 -728 16 -35 29 -65 29 -68 0 -5 117 -261
202 -443 50 -107 272 -551 308 -616 15 -27 50 -93 78 -145 27 -52 66 -124 86
-158 20 -35 36 -65 36 -67 0 -2 26 -49 135 -240 283 -496 614 -1009 969 -1500
71 -99 132 -182 135 -185 4 -3 31 -39 63 -80 109 -145 175 -229 278 -356 131
-160 338 -401 405 -474 29 -30 74 -80 101 -109 233 -258 624 -635 879 -847
187 -155 333 -267 508 -391 127 -89 364 -243 374 -243 4 0 14 -6 22 -14 9 -8
52 -33 96 -56 44 -24 85 -46 90 -51 43 -32 352 -176 532 -248 72 -29 138 -58
147 -64 16 -12 21 -42 31 -172 2 -38 7 -97 10 -130 9 -98 14 -183 21 -310 3
-66 7 -145 10 -175 5 -72 5 -595 0 -640 -3 -19 -7 -69 -11 -110 -8 -103 -41
-236 -70 -285 -42 -73 -167 -228 -250 -310 -128 -129 -230 -195 -441 -289
-166 -73 -229 -122 -276 -213 -38 -73 -66 -164 -82 -263 -32 -195 -46 -396
-50 -712 l-3 -210 536 7 c295 4 592 8 661 10 237 7 495 16 565 20 39 3 120 7
180 11 61 3 126 7 145 9 240 19 377 40 410 63 60 43 152 281 236 612 46 178
129 524 137 570 3 14 12 52 20 85 15 55 83 354 91 400 2 11 13 58 25 105 23
98 81 338 86 360 55 242 241 917 264 956 4 8 38 5 117 -11 61 -13 128 -25 150
-29 42 -6 73 -11 149 -26 28 -5 64 -12 80 -14 17 -3 98 -16 180 -30 83 -14
170 -28 195 -32 25 -3 52 -8 60 -9 8 -2 38 -6 65 -9 28 -4 75 -11 105 -16 56
-9 102 -16 175 -25 42 -5 114 -14 155 -20 14 -2 48 -7 75 -11 28 -3 50 -7 51
-8 5 -7 92 -247 109 -301 91 -279 213 -724 270 -985 2 -8 15 -67 30 -130 14
-63 29 -126 31 -140 3 -14 9 -41 14 -60 5 -19 12 -48 14 -65 3 -16 13 -61 21
-100 33 -153 185 -894 201 -985 5 -25 39 -204 49 -250 2 -14 11 -59 20 -100 8
-41 18 -88 21 -105 3 -16 9 -49 15 -73 5 -23 12 -59 15 -80 3 -20 12 -64 19
-97 8 -33 17 -76 20 -95 9 -51 101 -493 120 -575 10 -38 19 -81 21 -94 10 -49
93 -367 104 -396 7 -16 13 -37 15 -45 7 -32 59 -167 81 -211 42 -84 85 -105
249 -124 28 -3 64 -8 80 -10 28 -3 99 -9 245 -20 133 -10 403 -22 665 -30 105
-3 249 -8 320 -10 143 -5 925 -16 1293 -19 128 -1 238 1 244 5 16 10 5 522
-17 724 -1 17 -6 59 -9 95 -8 72 -11 90 -26 170 -6 30 -13 66 -16 80 -17 93
-80 238 -127 290 -60 67 -148 117 -313 179 -283 104 -500 259 -709 505 -121
142 -149 194 -179 334 -50 230 -54 649 -11 1306 4 55 8 106 10 115 2 9 6 57 9
106 4 50 9 106 11 125 2 19 7 62 10 95 22 223 30 303 40 380 2 17 7 62 10 100
4 39 9 78 10 87 2 9 7 48 10 85 9 80 13 104 19 111 3 2 128 4 278 3 268 -2
280 -3 290 -34 3 -7 140 -14 299 -16 l67 -1 6 -33 c3 -17 8 -50 12 -72 3 -22
9 -58 14 -80 5 -22 12 -56 15 -75 3 -19 12 -66 20 -105 8 -38 19 -99 24 -135
16 -99 20 -121 31 -170 5 -25 12 -61 15 -80 2 -19 7 -48 10 -65 10 -52 65
-358 71 -395 3 -19 8 -46 10 -60 2 -14 9 -45 14 -70 5 -25 14 -72 20 -105 5
-33 12 -71 15 -85 3 -14 14 -74 25 -135 30 -175 99 -513 121 -600 12 -44 23
-91 25 -105 17 -90 75 -254 110 -312 20 -31 54 -50 89 -49 2 0 18 -4 35 -9 17
-5 61 -12 98 -15 37 -4 81 -8 97 -10 36 -4 207 -16 285 -20 233 -11 354 -17
475 -20 148 -5 831 -16 1100 -18 l160 -2 -1 185 c-1 241 -5 347 -15 445 -18
168 -21 189 -24 195 -1 3 -6 25 -9 50 -18 132 -84 274 -155 328 -36 29 -59 41
-241 125 -161 74 -218 114 -353 251 -100 102 -200 230 -229 295 -44 98 -71
318 -71 591 0 123 13 493 18 498 2 2 26 5 53 7 28 2 77 6 109 9 32 4 83 9 113
11 83 7 171 15 210 20 19 2 64 7 100 10 36 3 81 8 100 10 19 2 60 7 90 10 30
3 71 8 90 10 60 8 103 13 165 20 69 7 129 14 165 20 14 2 45 6 70 9 25 3 61 8
80 11 19 2 58 7 85 11 28 3 57 8 65 9 8 2 35 6 60 9 l45 6 22 -48 c44 -96 159
-432 211 -617 72 -256 130 -480 197 -770 49 -213 167 -764 181 -845 2 -14 7
-36 10 -50 3 -14 10 -47 14 -75 5 -27 19 -95 30 -150 12 -55 24 -111 26 -125
2 -14 7 -36 10 -50 3 -14 8 -38 11 -55 3 -16 11 -59 18 -95 7 -36 27 -135 43
-220 68 -345 153 -765 178 -877 14 -65 27 -128 30 -139 47 -237 144 -596 206
-764 23 -62 71 -138 98 -153 29 -17 141 -40 255 -51 203 -20 251 -23 640 -41
433 -19 1122 -34 1903 -39 l244 -1 -6 270 c-10 406 -24 580 -66 774 -60 283
-144 384 -400 481 -362 138 -538 264 -794 570 -99 119 -129 188 -151 340 -13
93 -16 122 -22 220 -13 184 -5 765 12 900 2 14 6 68 9 120 6 91 11 140 21 240
3 25 7 72 10 105 3 33 8 78 10 100 2 22 7 72 10 110 3 39 8 88 10 110 3 22 7
61 10 88 11 100 16 145 25 217 6 41 12 95 15 120 9 94 15 146 20 175 3 17 8
53 11 80 3 28 8 61 9 75 2 14 7 49 10 79 4 30 8 63 11 74 2 11 6 45 10 76 3
31 8 63 9 72 2 9 6 40 10 70 6 54 10 83 20 137 3 16 7 44 9 63 3 19 9 63 15
99 6 36 11 79 13 97 2 35 -19 24 253 129 66 26 144 57 173 70 29 13 78 35 110
48 127 54 523 260 610 317 24 16 45 29 48 29 32 0 726 474 810 554 6 6 35 29
64 51 392 300 955 847 1324 1285 39 46 78 91 86 100 29 30 279 341 325 404 11
15 56 75 100 134 44 59 104 141 134 181 56 76 373 551 426 637 16 27 52 85 79
129 67 110 252 431 311 540 26 50 59 110 73 135 14 25 32 59 39 75 8 17 18 37
22 45 37 71 130 258 181 365 61 128 240 531 240 540 0 2 11 29 25 59 14 30 25
60 25 65 0 6 5 19 10 29 45 77 254 678 339 972 50 176 134 495 144 556 3 16
17 81 31 144 14 63 27 129 30 145 3 17 24 122 46 235 22 113 54 282 70 375 16
94 32 181 34 195 3 14 7 41 10 60 3 19 10 58 15 85 5 28 12 70 16 95 3 25 10
68 15 95 5 28 19 115 30 195 23 158 29 202 35 240 2 14 7 48 10 75 3 28 8 61
10 75 5 27 6 36 30 230 9 69 18 141 21 161 6 49 19 169 28 274 3 33 8 78 11
100 6 50 12 113 20 190 9 103 25 289 30 375 3 30 7 84 9 120 3 36 8 110 11
165 3 55 8 136 10 180 25 443 25 1407 1 1750 -3 33 -7 110 -11 170 -3 61 -7
128 -10 150 -2 22 -7 74 -10 115 -3 41 -8 93 -10 115 -2 22 -7 69 -10 105 -3
36 -10 101 -16 145 -16 129 -18 147 -24 200 -7 68 -14 120 -25 185 -8 51 -13
81 -26 170 -19 131 -88 495 -120 635 -14 60 -28 121 -30 135 -3 14 -14 61 -25
105 -11 44 -22 87 -24 95 -24 108 -152 537 -196 660 -17 47 -32 92 -34 100
-13 51 -166 441 -215 546 -16 36 -30 68 -30 71 0 10 -198 409 -250 503 -141
253 -413 675 -495 766 -5 6 -23 29 -40 50 -267 342 -578 655 -885 889 -36 27
-69 53 -75 57 -196 153 -504 330 -816 471 -105 47 -400 149 -499 172 -8 1 -42
10 -75 18 -52 14 -113 26 -205 43 -14 2 -34 6 -45 9 -11 2 -49 7 -85 10 -36 4
-76 9 -90 12 -28 6 -515 14 -521 9z m525 -11813 c-132 -130 -278 -259 -417
-373 -10 -8 -28 -23 -40 -34 -12 -10 -58 -45 -102 -78 l-80 -60 51 48 c28 27
84 78 125 113 41 36 79 69 84 75 6 6 44 40 85 76 41 36 80 70 86 75 22 20 151
134 214 188 35 31 66 54 69 52 2 -3 -32 -40 -75 -82z"/>
</g>
</svg>
