<?xml version="1.0" encoding="UTF-8" standalone="no"?>
<!DOCTYPE svg PUBLIC "-//W3C//DTD SVG 1.1//EN" "http://www.w3.org/Graphics/SVG/1.1/DTD/svg11.dtd">
<svg width="100%" height="100%" viewBox="0 0 917 853" version="1.1" xmlns="http://www.w3.org/2000/svg" xmlns:xlink="http://www.w3.org/1999/xlink" xml:space="preserve" style="fill-rule:evenodd;clip-rule:evenodd;stroke-linejoin:round;stroke-miterlimit:1.41421;">
    <g transform="matrix(1,0,0,1,4.11045e-05,-3.25657e-05)">
        <g transform="matrix(1,0,0,1,-67.0151,-62.2647)">
            <g transform="matrix(0.931963,0,5.55112e-17,0.931963,-288.914,-652.055)">
                <path d="M1213.93,1183.86L1213.95,1183.85C1276.26,1118.38 1315.08,986.803 1260.84,878.471C1260.84,878.471 1130.87,926.824 1128.51,826.53C1125.74,708.804 1444.05,730.811 1347.61,1199.56C1326.33,1302.98 1242.24,1433.5 1133.63,1470.71C1128.45,1505.03 1116.9,1589.87 1127.23,1603.64C1159.43,1646.57 1174.89,1603.03 1174.89,1681.63C1174.89,1681.63 1079.57,1681.63 1066.57,1677.29C1055.31,1673.54 1040.8,1543.05 1020.23,1496.9C1001.56,1499.61 982.358,1501.74 962.837,1503.31C961.743,1522.44 962.027,1538.67 965.435,1543.68C989.959,1579.83 1001.74,1543.17 1001.74,1609.34C1001.74,1609.34 929.129,1609.34 919.23,1605.69C913.447,1603.57 906.546,1553.01 897.868,1508.37C893.432,1508.35 889.07,1508.22 884.738,1507.97L884.411,1506.57C883.576,1506.57 882.742,1506.57 881.907,1506.57L879.402,1506.57C874.811,1506.57 870.22,1506.54 865.631,1506.48L864.379,1506.46C859.552,1545.07 855.34,1593.52 862.923,1603.64C894.872,1646.24 910.34,1603.7 910.58,1679.81L910.583,1681.63C910.583,1681.63 815.258,1681.63 802.26,1677.29C791.177,1673.6 776.943,1547.09 756.877,1499.12C737.779,1496.73 719.185,1493.75 701.279,1490.21C687.843,1532.38 679.962,1586.92 671.786,1599.85L671.599,1600.14C671.513,1600.27 671.424,1600.39 671.33,1600.49L671.159,1600.7C671.067,1600.81 670.973,1600.91 670.869,1600.98L670.726,1601.11C670.58,1601.22 670.437,1601.3 670.292,1601.35C659.606,1605.29 581.218,1605.29 581.218,1605.29C581.218,1533.85 593.935,1573.43 620.413,1534.4C625.339,1527.14 624.208,1498.13 621.559,1468.97C620.373,1468.52 619.698,1468.2 619.627,1468.05C516.973,1430.76 426.608,1271.12 401.56,1175.11C399.715,1168.03 397.982,1161.05 396.364,1154.15L396.54,1154.27C316.633,792.04 590.481,836.203 583.894,906.287C578.982,958.539 476.008,930.595 476.008,930.595C431.503,1014.8 460.561,1119.59 548.444,1184.89C553.348,1186.15 561.152,1188.07 568.759,1189.58C571.172,1189.15 573.569,1188.68 575.949,1188.19C582.488,1188.11 588.989,1187.54 595.462,1186.55C686.256,1172.67 719.812,906.725 882.548,902.842C1029.53,899.334 1085.12,1188.61 1181.9,1188.72L1182.53,1188.72C1192.36,1188.68 1202.28,1187.48 1212.33,1184.89C1212.71,1184.65 1213.17,1184.35 1213.61,1184.07L1213.62,1184.06L1213.93,1183.86ZM1213.69,1184.02L1213.61,1184.07C1205.2,1191.02 1195.28,1200.1 1183.78,1210.27C1194.03,1202.77 1204.15,1194.14 1213.93,1183.87L1213.69,1184.02Z" style="fill:url(#_Linear1);"/>
            </g>
            <g transform="matrix(1.35149,0,0,1.11333,659.737,-20.0493)">
                <path id="Eye2" d="M137.36,110.072C146.393,110.072 153.714,117.395 153.714,126.427C153.714,135.459 146.392,142.781 137.36,142.781C128.328,142.781 121.006,135.458 121.006,126.427C121.006,117.395 128.328,110.072 137.36,110.072" style="fill:white;"/>
                <g id="Iris2" transform="matrix(1,0,0,1,0.667725,-0.0005)">
                    <path d="M137.36,117.238C142.435,117.238 146.55,121.352 146.55,126.427C146.55,131.502 142.435,135.616 137.36,135.616C132.285,135.616 128.171,131.502 128.171,126.427C128.171,121.352 132.286,117.238 137.36,117.238" style="fill:black;"/>
                </g>
                <g id="Bottom_Eye_Lid2" transform="matrix(1,0,0,0.913196,0,13.9751)">
                    <rect x="116.846" y="126.427" width="41.029" height="18.192" style="fill:rgb(70,171,102);"/>
                </g>
                <g id="Top_Eye_Lid2" transform="matrix(0.9999,-0.0141072,0.0101912,0.722339,-0.338482,32.307)">
                    <rect x="116.846" y="90.978" width="41.029" height="18.192" style="fill:rgb(70,171,102);"/>
                </g>
            </g>
        </g>
    </g>
    <defs>
        <linearGradient id="_Linear1" x1="0" y1="0" x2="1" y2="0" gradientUnits="userSpaceOnUse" gradientTransform="matrix(2.59243e-13,-915.159,915.159,2.59243e-13,873.864,1681.63)"><stop offset="0%" style="stop-color:rgb(38,111,60);stop-opacity:1"/><stop offset="15%" style="stop-color:rgb(38,111,60);stop-opacity:1"/><stop offset="77%" style="stop-color:rgb(70,171,102);stop-opacity:1"/><stop offset="100%" style="stop-color:rgb(70,171,102);stop-opacity:1"/></linearGradient>
    </defs>
</svg>
