<?xml version="1.0" encoding="UTF-8" standalone="no"?>
<!DOCTYPE svg PUBLIC "-//W3C//DTD SVG 1.1//EN" "http://www.w3.org/Graphics/SVG/1.1/DTD/svg11.dtd">
<svg width="100%" height="100%" viewBox="0 0 644 106" version="1.1" xmlns="http://www.w3.org/2000/svg" xmlns:xlink="http://www.w3.org/1999/xlink" xml:space="preserve" style="fill-rule:evenodd;clip-rule:evenodd;stroke-linejoin:round;stroke-miterlimit:1.41421;">
    <g transform="matrix(1,0,0,1,-8.4054,-70.4744)">
        <g transform="matrix(1,0,0,1,-51.9126,-27.4833)">
            <g transform="matrix(0.382434,0,0,0.382434,167.505,196.048)">
                <path d="M81.844,-143.156C101.719,-143.156 118.758,-136.008 132.961,-121.711C147.164,-107.414 154.266,-90.281 154.266,-70.313C154.266,-50.063 147.07,-32.813 132.68,-18.563C118.289,-4.313 100.922,2.813 80.578,2.813C60.234,2.813 42.844,-4.336 28.406,-18.633C13.969,-32.93 6.75,-50.156 6.75,-70.313C6.75,-90.844 13.969,-108.117 28.406,-122.133C42.844,-136.148 60.656,-143.156 81.844,-143.156ZM80.438,-91.266C74.813,-91.266 70.031,-89.227 66.094,-85.148C62.156,-81.07 60.188,-76.078 60.188,-70.172C60.188,-64.359 62.18,-59.391 66.164,-55.266C70.148,-51.141 74.906,-49.078 80.438,-49.078C86.063,-49.078 90.867,-51.141 94.852,-55.266C98.836,-59.391 100.828,-64.359 100.828,-70.172C100.828,-76.078 98.859,-81.07 94.922,-85.148C90.984,-89.227 86.156,-91.266 80.438,-91.266Z" style="fill:black;fill-rule:nonzero;stroke-width:2.61px;stroke:white;"/>
                <path d="M237.234,-140.344L237.234,0L180.141,0L180.141,-191.953L253.406,-191.953C275.719,-191.953 293.016,-186.422 305.297,-175.359C318.984,-162.984 325.828,-147.281 325.828,-128.25C325.828,-108.844 317.344,-92.484 300.375,-79.172L333.281,0L273.375,0L245.672,-61.875L245.672,-111.234L250.172,-111.234C262.172,-111.234 268.172,-116.391 268.172,-126.703C268.172,-135.797 261.234,-140.344 247.359,-140.344L237.234,-140.344Z" style="fill:black;fill-rule:nonzero;stroke-width:2.61px;stroke:white;"/>
                <path d="M434.813,-191.953L487.406,-191.953L487.406,-75.094C487.406,-53.625 481.781,-36.141 470.531,-22.641C464.063,-14.859 455.836,-8.672 445.852,-4.078C435.867,0.516 425.625,2.813 415.125,2.813C394.219,2.813 376.594,-4.219 362.25,-18.281C347.906,-32.344 340.734,-49.594 340.734,-70.031C340.734,-89.813 347.859,-106.922 362.109,-121.359C376.359,-135.797 393.234,-143.016 412.734,-143.016C415.828,-143.016 420.516,-142.734 426.797,-142.172L426.797,-84.234C422.484,-87.609 418.172,-89.297 413.859,-89.297C408.422,-89.297 403.758,-87.305 399.867,-83.32C395.977,-79.336 394.031,-74.531 394.031,-68.906C394.031,-63.469 396.047,-58.805 400.078,-54.914C404.109,-51.023 408.938,-49.078 414.563,-49.078C428.063,-49.078 434.813,-58.406 434.813,-77.063L434.813,-191.953Z" style="fill:black;fill-rule:nonzero;stroke-width:2.61px;stroke:white;"/>
            </g>
        </g>
        <g transform="matrix(1,0,0,1,-51.9126,-27.4833)">
            <g transform="matrix(0.493289,0,0,0.493289,364.685,191.445)">
                <path d="M44.438,-48.164L44.438,-22.852L36.211,-22.852L36.211,0L7.664,0L7.664,-61.031C7.664,-72.844 10.887,-82.02 17.332,-88.559C23.777,-95.098 32.836,-98.367 44.508,-98.367C55.758,-98.367 64.078,-95.402 69.469,-89.473C74.859,-83.543 77.555,-74.391 77.555,-62.016L77.555,0L49.008,0L49.008,-60.117C49.008,-63.867 48.563,-66.469 47.672,-67.922C46.781,-69.375 45.188,-70.102 42.891,-70.102C38.438,-70.102 36.211,-66.773 36.211,-60.117L36.211,-48.164L44.438,-48.164Z" style="fill:black;fill-rule:nonzero;stroke-width:2.03px;stroke:white;"/>
                <path d="M123.398,-68.414L123.398,0L94.852,0L94.852,-95.977L132.047,-95.977C148.359,-95.977 161.133,-92.273 170.367,-84.867C181.336,-76.008 186.82,-63.984 186.82,-48.797C186.82,-34.266 182.133,-22.406 172.758,-13.219C163.383,-4.031 151.313,0.563 136.547,0.563C134.813,0.563 131.977,0.469 128.039,0.281L128.039,-27.914L132.609,-27.914C149.25,-27.914 157.57,-34.875 157.57,-48.797C157.57,-61.875 149.391,-68.414 133.031,-68.414L123.398,-68.414Z" style="fill:black;fill-rule:nonzero;stroke-width:2.03px;stroke:white;"/>
                <path d="M231.539,-71.578C241.477,-71.578 249.996,-68.004 257.098,-60.855C264.199,-53.707 267.75,-45.141 267.75,-35.156C267.75,-25.031 264.152,-16.406 256.957,-9.281C249.762,-2.156 241.078,1.406 230.906,1.406C220.734,1.406 212.039,-2.168 204.82,-9.316C197.602,-16.465 193.992,-25.078 193.992,-35.156C193.992,-45.422 197.602,-54.059 204.82,-61.066C212.039,-68.074 220.945,-71.578 231.539,-71.578ZM230.836,-45.633C228.023,-45.633 225.633,-44.613 223.664,-42.574C221.695,-40.535 220.711,-38.039 220.711,-35.086C220.711,-32.18 221.707,-29.695 223.699,-27.633C225.691,-25.57 228.07,-24.539 230.836,-24.539C233.648,-24.539 236.051,-25.57 238.043,-27.633C240.035,-29.695 241.031,-32.18 241.031,-35.086C241.031,-38.039 240.047,-40.535 238.078,-42.574C236.109,-44.613 233.695,-45.633 230.836,-45.633Z" style="fill:black;fill-rule:nonzero;stroke-width:2.03px;stroke:white;"/>
                <path d="M311.906,-33.188L311.906,-58.359C317.672,-58.359 320.555,-60.562 320.555,-64.969C320.555,-69 318.352,-71.016 313.945,-71.016C309.492,-71.016 307.266,-68.25 307.266,-62.719L307.266,0L278.719,0L278.719,-59.766C278.719,-65.953 279.34,-71.027 280.582,-74.988C281.824,-78.949 283.945,-82.641 286.945,-86.063C290.32,-89.859 294.539,-92.859 299.602,-95.063C304.664,-97.266 309.891,-98.367 315.281,-98.367C325.031,-98.367 333.223,-95.086 339.855,-88.523C346.488,-81.961 349.805,-73.828 349.805,-64.125C349.805,-54.703 346.828,-47.062 340.875,-41.203C335.438,-35.813 327.234,-33.117 316.266,-33.117L311.906,-33.188Z" style="fill:black;fill-rule:nonzero;stroke-width:2.03px;stroke:white;"/>
                <path d="M359.648,-95.977L388.195,-95.977L388.195,-38.953C388.195,-34.5 388.91,-31.535 390.34,-30.059C391.77,-28.582 394.594,-27.844 398.813,-27.844L400.289,-27.844L400.289,0L392.695,0C382.289,0 374.18,-3.035 368.367,-9.105C362.555,-15.176 359.648,-23.602 359.648,-34.383L359.648,-95.977Z" style="fill:black;fill-rule:nonzero;stroke-width:2.03px;stroke:white;"/>
                <path d="M434.25,-70.102L434.25,0L407.953,0L407.953,-70.102L434.25,-70.102ZM421.172,-101.391C424.734,-101.391 427.816,-100.137 430.418,-97.629C433.02,-95.121 434.32,-92.156 434.32,-88.734C434.32,-85.078 433.09,-82.078 430.629,-79.734C428.168,-77.391 425.016,-76.219 421.172,-76.219C417.328,-76.219 414.176,-77.391 411.715,-79.734C409.254,-82.078 408.023,-85.078 408.023,-88.734C408.023,-92.156 409.324,-95.121 411.926,-97.629C414.527,-100.137 417.609,-101.391 421.172,-101.391Z" style="fill:black;fill-rule:nonzero;stroke-width:2.03px;stroke:white;"/>
                <path d="M516.586,-46.898L546.469,-46.125C544.5,-30.656 539.145,-18.703 530.402,-10.266C521.66,-1.828 510.258,2.391 496.195,2.391C481.898,2.391 469.934,-2.402 460.301,-11.988C450.668,-21.574 445.852,-33.469 445.852,-47.672C445.852,-61.969 450.762,-73.992 460.582,-83.742C470.402,-93.492 482.508,-98.367 496.898,-98.367C511.055,-98.367 522.867,-93.586 532.336,-84.023C538.898,-77.414 543.539,-68.203 546.258,-56.391L515.672,-54.352C512.25,-64.852 505.758,-70.102 496.195,-70.102C490.102,-70.102 485.074,-67.992 481.113,-63.773C477.152,-59.555 475.172,-54.188 475.172,-47.672C475.172,-41.391 477.117,-36.199 481.008,-32.098C484.898,-27.996 489.82,-25.945 495.773,-25.945C501.82,-25.945 506.637,-27.75 510.223,-31.359C513.809,-34.969 515.93,-40.148 516.586,-46.898Z" style="fill:black;fill-rule:nonzero;stroke-width:2.03px;stroke:white;"/>
                <path d="M627.398,-95.977L627.398,-33.75C627.398,-22.781 624.129,-14.016 617.59,-7.453C611.051,-0.891 602.344,2.391 591.469,2.391C580.641,2.391 572.355,-0.797 566.613,-7.172C560.871,-13.547 558,-22.711 558,-34.664L558,-95.977L586.547,-95.977L586.547,-34.734C586.547,-28.875 588.633,-25.945 592.805,-25.945C596.836,-25.945 598.852,-28.875 598.852,-34.734L598.852,-95.977L627.398,-95.977Z" style="fill:black;fill-rule:nonzero;stroke-width:2.03px;stroke:white;"/>
                <path d="M686.742,-69.117L686.742,-41.414C683.039,-41.414 680.496,-40.723 679.113,-39.34C677.73,-37.957 676.852,-35.227 676.477,-31.148C675.258,-17.602 670.008,-8.039 660.727,-2.461C655.805,0.445 648.82,1.898 639.773,1.898L636.117,1.898L636.117,-25.945L637.313,-25.945C641.531,-25.945 644.543,-26.824 646.348,-28.582C648.152,-30.34 649.195,-33.422 649.477,-37.828C649.852,-45 650.52,-50.039 651.48,-52.945C652.441,-55.852 654.398,-58.734 657.352,-61.594C662.508,-66.609 669.656,-69.117 678.797,-69.117L686.742,-69.117Z" style="fill:black;fill-rule:nonzero;stroke-width:2.03px;stroke:white;"/>
            </g>
        </g>
        <g transform="matrix(1,0,0,1,-51.9126,-27.4833)">
            <g transform="matrix(0.121058,0,0,0.121472,53.0713,91.2602)">
                <g transform="matrix(0.931963,0,0,0.931963,-288.914,-652.055)">
                    <path d="M1213.93,1183.86L1213.95,1183.85C1276.26,1118.38 1315.08,986.803 1260.84,878.471C1260.84,878.471 1130.87,926.824 1128.51,826.53C1125.74,708.804 1444.05,730.811 1347.61,1199.56C1326.33,1302.98 1242.24,1433.5 1133.63,1470.71C1128.45,1505.03 1116.9,1589.87 1127.23,1603.64C1159.43,1646.57 1174.89,1603.03 1174.89,1681.63C1174.89,1681.63 1079.57,1681.63 1066.57,1677.29C1055.31,1673.54 1040.8,1543.05 1020.23,1496.9C1001.56,1499.61 982.358,1501.74 962.837,1503.31C961.743,1522.44 962.027,1538.67 965.435,1543.68C989.959,1579.83 1001.74,1543.17 1001.74,1609.34C1001.74,1609.34 929.129,1609.34 919.23,1605.69C913.447,1603.57 906.546,1553.01 897.868,1508.37C893.432,1508.35 889.07,1508.22 884.738,1507.97L884.411,1506.57C883.576,1506.57 882.742,1506.57 881.907,1506.57L879.402,1506.57C874.811,1506.57 870.22,1506.54 865.631,1506.48L864.379,1506.46C859.552,1545.07 855.34,1593.52 862.923,1603.64C894.872,1646.24 910.34,1603.7 910.58,1679.81L910.583,1681.63C910.583,1681.63 815.258,1681.63 802.26,1677.29C791.177,1673.6 776.943,1547.09 756.877,1499.12C737.779,1496.73 719.185,1493.75 701.279,1490.21C687.843,1532.38 679.962,1586.92 671.786,1599.85L671.599,1600.14C671.513,1600.27 671.424,1600.39 671.33,1600.49L671.159,1600.7C671.067,1600.81 670.973,1600.91 670.869,1600.98L670.726,1601.11C670.58,1601.22 670.437,1601.3 670.292,1601.35C659.606,1605.29 581.218,1605.29 581.218,1605.29C581.218,1533.85 593.935,1573.43 620.413,1534.4C625.339,1527.14 624.208,1498.13 621.559,1468.97C620.373,1468.52 619.698,1468.2 619.627,1468.05C516.973,1430.76 426.608,1271.12 401.56,1175.11C399.715,1168.03 397.982,1161.05 396.364,1154.15L396.54,1154.27C316.633,792.04 590.481,836.203 583.894,906.287C578.982,958.539 476.008,930.595 476.008,930.595C431.503,1014.8 460.561,1119.59 548.444,1184.89C553.348,1186.15 561.152,1188.07 568.759,1189.58C571.172,1189.15 573.569,1188.68 575.949,1188.19C582.488,1188.11 588.989,1187.54 595.462,1186.55C686.256,1172.67 719.812,906.725 882.548,902.842C1029.53,899.334 1085.12,1188.61 1181.9,1188.72L1182.53,1188.72C1192.36,1188.68 1202.28,1187.48 1212.33,1184.89C1212.71,1184.65 1213.17,1184.35 1213.61,1184.07L1213.62,1184.06L1213.93,1183.86ZM1213.69,1184.02L1213.61,1184.07C1205.2,1191.02 1195.28,1200.1 1183.78,1210.27C1194.03,1202.77 1204.15,1194.14 1213.93,1183.87L1213.69,1184.02Z" style="fill:rgb(13,13,13);stroke-width:8.85px;stroke:white;"/>
                </g>
                <g transform="matrix(1.35149,0,0,1.11333,659.737,-20.0493)">
                    <path id="Eye2" d="M137.36,110.072C146.393,110.072 153.714,117.395 153.714,126.427C153.714,135.459 146.392,142.781 137.36,142.781C128.328,142.781 121.006,135.458 121.006,126.427C121.006,117.395 128.328,110.072 137.36,110.072" style="fill:white;"/>
                    <g id="Iris2" transform="matrix(1,0,0,1,0.667725,-0.0005)">
                        <path d="M137.36,117.238C142.435,117.238 146.55,121.352 146.55,126.427C146.55,131.502 142.435,135.616 137.36,135.616C132.285,135.616 128.171,131.502 128.171,126.427C128.171,121.352 132.286,117.238 137.36,117.238" style="fill:black;"/>
                    </g>
                    <g id="Bottom_Eye_Lid2" transform="matrix(1,0,0,0.913196,0,13.9751)">
                        <rect x="116.846" y="126.427" width="41.029" height="18.192" style="fill:rgb(13,13,13);"/>
                    </g>
                    <g id="Top_Eye_Lid2" transform="matrix(0.9999,-0.0141072,0.0101912,0.722339,-0.338482,32.307)">
                        <rect x="116.846" y="90.978" width="41.029" height="18.192" style="fill:rgb(13,13,13);"/>
                    </g>
                </g>
            </g>
        </g>
    </g>
</svg>
