<?xml version="1.0" standalone="no"?>
<!DOCTYPE svg PUBLIC "-//W3C//DTD SVG 1.1//EN" "http://www.w3.org/Graphics/SVG/1.1/DTD/svg11.dtd">
<svg width="100%" height="100%" viewBox="0 0 657 304" version="1.1" xmlns="http://www.w3.org/2000/svg" xmlns:xlink="http://www.w3.org/1999/xlink" xml:space="preserve" style="fill-rule:evenodd;clip-rule:evenodd;stroke-linejoin:round;stroke-miterlimit:1.41421;">
    <g transform="matrix(1,0,0,1,-51.9126,-27.4833)">
        <g transform="matrix(0.37389,0,0,0.37389,7.93049,12.7026)">
            <path d="M402.053,443.358C407.407,469.154 411.577,501.712 415.024,502.981C420.469,504.988 460.404,504.988 460.404,504.988C460.404,468.589 453.927,488.755 440.438,468.874C438.262,465.672 438.402,454.16 439.354,441.481C424.84,443.161 413.267,444.064 402.053,443.358" style="fill:none;stroke-width:2.14px;stroke:black;"/>
            <path d="M402.053,443.358C407.407,469.154 411.577,501.712 415.024,502.981C420.469,504.988 460.404,504.988 460.404,504.988C460.404,468.589 453.927,488.755 440.438,468.874C438.262,465.672 438.402,454.16 439.354,441.481C424.84,443.161 413.267,444.064 402.053,443.358" style="fill:black;"/>
        </g>
        <g transform="matrix(-0.40365,0,0,0.40365,223.236,-3.15979)">
            <path d="M300.911,432.51C284.735,438.036 258.584,442.089 258.642,442.263C266.336,464.148 270.601,495.203 275.037,502.219L275.132,502.368C275.176,502.433 275.221,502.493 275.269,502.546L275.356,502.653C275.403,502.708 275.451,502.757 275.504,502.791L275.577,502.859C275.651,502.914 275.724,502.956 275.798,502.982C281.242,504.989 321.179,504.989 321.179,504.989C321.179,468.59 314.7,488.756 301.21,468.875C298.53,464.924 299.369,448.337 300.911,432.51" style="fill:none;stroke-width:1.98px;stroke:black;"/>
            <path d="M300.911,432.51C284.735,438.036 258.584,442.089 258.642,442.263C266.336,464.148 270.601,495.203 275.037,502.219L275.132,502.368C275.176,502.433 275.221,502.493 275.269,502.546L275.356,502.653C275.403,502.708 275.451,502.757 275.504,502.791L275.577,502.859C275.651,502.914 275.724,502.956 275.798,502.982C281.242,504.989 321.179,504.989 321.179,504.989C321.179,468.59 314.7,488.756 301.21,468.875C298.53,464.924 299.369,448.337 300.911,432.51" style="fill:black;"/>
        </g>
        <g transform="matrix(0.37389,0,0,0.37389,5.68715,12.7026)">
            <path d="M217.083,271.526C168.745,235.611 152.762,177.976 177.241,131.659C177.241,131.659 233.88,147.029 236.581,118.289C240.238,79.378 86.723,54.993 134.829,260.391C167.822,283.96 207.633,281.624 237.967,275.379C232.972,275.442 222.179,272.839 217.083,271.526" style="fill:none;stroke-width:2.14px;stroke:black;"/>
            <path d="M217.083,271.526C168.745,235.611 152.762,177.976 177.241,131.659C177.241,131.659 233.88,147.029 236.581,118.289C240.238,79.378 86.723,54.993 134.829,260.391C167.822,283.96 207.633,281.624 237.967,275.379C232.972,275.442 222.179,272.839 217.083,271.526" style="fill:black;"/>
        </g>
        <g transform="matrix(0.37389,0,0,0.37389,5.68715,12.7026)">
            <path d="M232.211,273.344C201.878,279.589 166.429,278.188 133.435,254.619C134.325,258.415 135.278,262.255 136.293,266.146C150.07,318.956 199.773,406.76 256.235,427.27C256.59,428.049 284.353,436.13 300.91,439.414C310.831,441.382 321.138,443.039 331.726,444.364C342.763,470.745 350.592,540.331 356.688,542.362C363.837,544.746 416.268,544.746 416.268,544.746C416.268,501.513 407.765,525.464 390.054,501.849C385.883,496.287 388.2,469.638 390.855,448.4C394.526,448.455 398.2,448.472 401.873,448.457L402.053,449.231C413.267,449.87 424.84,449.053 439.354,447.534L439.356,447.534L439.391,447.089C452.063,446.203 464.523,444.887 476.576,443.144C468.539,416.577 417.613,370.13 502.951,329.705C540.754,311.799 566.861,284.356 582.948,271.072C584.792,269.875 583.13,270.962 582.239,271.528C521.992,287.055 470.391,211.628 400,211.628C335.562,211.626 286.252,272.663 232.211,273.344Z" style="fill:none;stroke-width:2.14px;stroke:black;"/>
            <path d="M232.211,273.344C201.878,279.589 166.429,278.188 133.435,254.619C134.325,258.415 135.278,262.255 136.293,266.146C150.07,318.956 199.773,406.76 256.235,427.27C256.59,428.049 284.353,436.13 300.91,439.414C310.831,441.382 321.138,443.039 331.726,444.364C342.763,470.745 350.592,540.331 356.688,542.362C363.837,544.746 416.268,544.746 416.268,544.746C416.268,501.513 407.765,525.464 390.054,501.849C385.883,496.287 388.2,469.638 390.855,448.4C394.526,448.455 398.2,448.472 401.873,448.457L402.053,449.231C413.267,449.87 424.84,449.053 439.354,447.534L439.356,447.534L439.391,447.089C452.063,446.203 464.523,444.887 476.576,443.144C468.539,416.577 417.613,370.13 502.951,329.705C540.754,311.799 566.861,284.356 582.948,271.072C584.792,269.875 583.13,270.962 582.239,271.528C521.992,287.055 470.391,211.628 400,211.628C335.562,211.626 286.252,272.663 232.211,273.344Z" style="fill:black;"/>
        </g>
        <g transform="matrix(0.37389,0,0,0.37389,5.68715,12.7026)">
            <path d="M232.211,273.344C201.878,279.589 166.429,278.188 133.435,254.619C134.325,258.415 135.278,262.255 136.293,266.146C150.07,318.956 199.773,406.76 256.235,427.27C256.59,428.049 284.353,436.13 300.91,439.414C310.831,441.382 321.138,443.039 331.726,444.364C342.763,470.745 350.592,540.331 356.688,542.362C363.837,544.746 416.268,544.746 416.268,544.746C416.268,501.513 407.765,525.464 390.054,501.849C385.883,496.287 388.2,469.638 390.855,448.4C394.526,448.455 398.2,448.472 401.873,448.457L402.053,449.231C413.267,449.87 424.84,449.053 439.354,447.534L439.356,447.534L439.391,447.089C452.063,446.203 464.523,444.887 476.576,443.144C468.539,416.577 469.932,367.139 502.951,329.705C530.621,298.335 566.861,284.356 582.948,271.072C584.792,269.875 583.13,270.962 582.239,271.528C521.992,287.055 470.391,211.628 400,211.628C335.562,211.626 286.252,272.663 232.211,273.344Z" style="fill:none;stroke-width:2.14px;stroke:black;"/>
            <path d="M232.211,273.344C201.878,279.589 166.429,278.188 133.435,254.619C134.325,258.415 135.278,262.255 136.293,266.146C150.07,318.956 199.773,406.76 256.235,427.27C256.59,428.049 284.353,436.13 300.91,439.414C310.831,441.382 321.138,443.039 331.726,444.364C342.763,470.745 350.592,540.331 356.688,542.362C363.837,544.746 416.268,544.746 416.268,544.746C416.268,501.513 407.765,525.464 390.054,501.849C385.883,496.287 388.2,469.638 390.855,448.4C394.526,448.455 398.2,448.472 401.873,448.457L402.053,449.231C413.267,449.87 424.84,449.053 439.354,447.534L439.356,447.534L439.391,447.089C452.063,446.203 464.523,444.887 476.576,443.144C468.539,416.577 469.932,367.139 502.951,329.705C530.621,298.335 566.861,284.356 582.948,271.072C584.792,269.875 583.13,270.962 582.239,271.528C521.992,287.055 470.391,211.628 400,211.628C335.562,211.626 286.252,272.663 232.211,273.344Z" style="fill:black;"/>
        </g>
        <g transform="matrix(0.37389,0,0,0.37389,5.68715,12.7026)">
            <path d="M476.575,443.142C487.892,468.521 495.873,540.298 502.064,542.362C509.213,544.746 561.645,544.746 561.645,544.746C561.645,501.513 553.142,525.464 535.43,501.849C529.749,494.276 536.101,447.613 538.952,428.736C598.686,408.272 644.94,336.481 656.643,279.599C709.69,21.773 546.416,9.668 547.938,74.421C549.235,129.585 608.918,102.99 608.918,102.99C638.751,162.575 617.4,234.945 583.127,270.953C530.674,326.062 460.697,295.16 476.575,443.142" style="fill:none;stroke-width:2.14px;stroke:black;"/>
            <path d="M476.575,443.142C487.892,468.521 495.873,540.298 502.064,542.362C509.213,544.746 561.645,544.746 561.645,544.746C561.645,501.513 553.142,525.464 535.43,501.849C529.749,494.276 536.101,447.613 538.952,428.736C598.686,408.272 644.94,336.481 656.643,279.599C709.69,21.773 546.416,9.668 547.938,74.421C549.235,129.585 608.918,102.99 608.918,102.99C638.751,162.575 617.4,234.945 583.127,270.953C530.674,326.062 460.697,295.16 476.575,443.142" style="fill:black;"/>
        </g>
        <g transform="matrix(0.697272,0,0,0.697272,-53.6902,58.973)">
            <text x="429.464px" y="209.064px" style="font-family:'Bauhaus93';font-size:288px;fill:black;">oRd</text>
        </g>
        <g transform="matrix(0.899388,0,0,0.899388,-327.66,140.463)">
            <text x="429.464px" y="209.064px" style="font-family:'Bauhaus93';font-size:144px;fill:black;">A DoPLiCUs</text>
        </g>
    </g>
</svg>
